<?xml version="1.0" encoding="utf-8"?>
<!-- Generator: Adobe Illustrator 16.0.0, SVG Export Plug-In . SVG Version: 6.00 Build 0)  -->
<!DOCTYPE svg PUBLIC "-//W3C//DTD SVG 1.1//EN" "http://www.w3.org/Graphics/SVG/1.1/DTD/svg11.dtd">
<svg version="1.1" xmlns="http://www.w3.org/2000/svg" xmlns:xlink="http://www.w3.org/1999/xlink" x="0px" y="0px" width="612px"
	 height="792px" viewBox="0 0 612 792" enable-background="new 0 0 612 792" xml:space="preserve">
<g id="Layer_1" display="none">
	<g id="XMLID_1_" display="inline">
		<g>
			<polygon fill="#8ED7F0" points="301.542,-4.5 611.421,792 301.542,551.056 0,792 			"/>
		</g>
		<g>
			<line fill="none" stroke="#000000" stroke-width="7" stroke-miterlimit="10" x1="301.542" y1="-4.5" x2="0" y2="792"/>
			<line fill="none" stroke="#000000" stroke-width="7" stroke-miterlimit="10" x1="0" y1="792" x2="301.542" y2="551.056"/>
			<line fill="none" stroke="#000000" stroke-width="7" stroke-miterlimit="10" x1="301.542" y1="551.056" x2="611.421" y2="792"/>
			<line fill="none" stroke="#000000" stroke-width="7" stroke-miterlimit="10" x1="611.421" y1="792" x2="301.542" y2="-4.5"/>
		</g>
	</g>
</g>
<g id="Layer_2">
	<line fill="none" stroke="#ED1C24" stroke-width="7" stroke-miterlimit="10" x1="306" y1="45.5" x2="306" y2="-54.5"/>
	<line fill="none" stroke="#ED1C24" stroke-width="7" stroke-miterlimit="10" x1="306" y1="45.5" x2="306" y2="822.5"/>
	<line fill="none" stroke="#ED1C24" stroke-width="7" stroke-miterlimit="10" x1="291.5" y1="396" x2="-40.5" y2="396"/>
	<line fill="none" stroke="#ED1C24" stroke-width="7" stroke-miterlimit="10" x1="291.5" y1="396" x2="629.5" y2="396"/>
	<path fill="#3D51A3" d="M13.321-5.829c-0.587-1.899-1.883-2.93-3.579-3.412c-2.202-3.338-8.503-2.678-9.178,1.97
		c-1.046,1.026-1.803,2.342-2.33,3.817c-1.16,1.04-2.122,2.457-2.793,4.314c-0.918,2.537-0.648,5.16,0.345,7.563
		C-4.363,9.423-4.466,10.441-4.5,11.5c-0.102,3.2,2.891,5.265,5.745,4.895c1.551,2.503,5.683,2.502,7.791,0.641
		c3.459-3.054,5.852-6.819,5.485-11.395C14.994,1.884,14.499-2.019,13.321-5.829z"/>
</g>
</svg>
